<?xml version="1.0" standalone="no"?>
<!DOCTYPE svg PUBLIC "-//W3C//DTD SVG 20010904//EN"
 "http://www.w3.org/TR/2001/REC-SVG-20010904/DTD/svg10.dtd">
<svg version="1.0" xmlns="http://www.w3.org/2000/svg"
 width="512.000000pt" height="512.000000pt" viewBox="0 0 512.000000 512.000000"
 preserveAspectRatio="xMidYMid meet">
<metadata>
Created by potrace 1.14, written by Peter Selinger 2001-2017
</metadata>
<g transform="translate(0.000000,512.000000) scale(0.100000,-0.100000)"
fill="#000000" stroke="none">
<path d="M0 3106 c0 -1771 2 -2015 15 -2026 8 -7 12 -17 8 -24 -11 -16 -13
-37 -3 -31 5 3 11 -1 14 -7 3 -7 4 -4 3 6 -1 10 4 20 11 22 7 1 8 0 3 -2 -14
-7 -2 -34 16 -34 8 0 12 4 8 9 -9 15 16 24 28 11 9 -10 9 -11 0 -6 -7 4 -13 2
-13 -3 0 -6 7 -11 15 -11 19 0 13 48 -7 63 -9 6 -8 7 5 3 10 -3 21 -6 23 -6 2
0 4 -6 4 -14 0 -8 7 -13 16 -12 9 0 19 -6 21 -14 3 -10 2 -11 -4 -3 -5 7 -14
9 -22 4 -9 -6 -7 -10 8 -14 22 -5 47 23 33 38 -4 4 3 5 16 2 18 -4 22 -2 18 9
-3 9 -2 12 5 9 13 -9 6 -30 -11 -30 -7 0 -15 -7 -17 -15 -3 -9 -1 -11 4 -5 12
14 43 18 43 5 0 -6 4 -9 9 -6 5 3 7 15 4 26 -3 11 0 20 6 20 7 0 10 -10 7 -24
-3 -15 1 -27 9 -30 19 -7 27 5 14 20 -6 7 -9 19 -6 26 4 9 6 7 6 -3 1 -9 7
-19 14 -22 17 -7 44 9 34 20 -5 4 -12 1 -16 -6 -6 -8 -11 -9 -15 -3 -3 6 4 14
16 18 39 13 50 13 40 1 -13 -19 -8 -40 11 -43 9 -1 15 1 12 6 -3 4 4 10 15 13
11 3 23 1 26 -4 3 -5 10 -7 15 -3 17 10 0 22 -31 19 -16 -1 -27 1 -24 6 3 5
10 7 15 4 5 -4 9 -2 9 4 0 7 8 7 25 -1 27 -12 32 -27 13 -46 -9 -9 -8 -12 6
-12 9 0 14 5 11 10 -6 10 22 9 40 -2 11 -7 29 10 33 32 2 12 0 12 -10 -1 -9
-10 -21 -13 -38 -9 l-25 6 25 7 c24 6 24 7 5 22 -19 16 -19 16 3 5 12 -6 30
-10 40 -8 12 2 16 -3 13 -17 -3 -20 -3 -20 19 0 l23 20 -12 -22 c-8 -16 -8
-24 1 -29 6 -4 8 -3 5 3 -4 6 0 14 9 17 8 3 13 2 10 -2 -3 -5 1 -9 7 -9 9 0
12 11 10 31 -3 28 -2 29 7 9 5 -13 18 -23 28 -23 10 0 23 -5 30 -10 6 -6 10
-7 7 -4 -5 8 20 34 33 34 5 0 17 -9 27 -20 17 -19 41 -18 29 1 -3 5 -11 6 -17
2 -7 -4 -7 -1 1 9 14 17 42 14 42 -4 0 -5 5 -6 10 -3 6 4 7 11 4 17 -5 7 -2 8
5 3 9 -5 10 -10 2 -18 -14 -14 -14 -30 -1 -22 5 3 10 0 10 -8 0 -7 7 -14 15
-14 12 0 12 3 2 16 -9 12 -9 13 1 7 7 -4 12 -2 12 4 0 6 4 9 9 5 5 -3 12 -1
15 4 3 5 -1 11 -9 15 -8 3 -15 10 -15 16 0 6 8 4 17 -6 10 -10 18 -25 18 -33
0 -11 10 -16 28 -17 22 -1 26 2 22 17 -4 11 -2 19 4 19 6 0 13 -11 17 -24 6
-24 42 -31 37 -7 -2 6 2 11 7 11 6 0 10 -5 10 -10 0 -6 8 -5 20 2 13 9 16 16
9 23 -6 6 -12 6 -17 0 -4 -6 -19 -11 -34 -13 -22 -2 -28 1 -27 15 0 11 3 13 6
6 2 -7 9 -13 14 -13 6 0 8 4 4 9 -3 6 4 8 15 6 11 -2 26 3 34 11 9 9 17 10 21
4 3 -5 1 -10 -6 -10 -8 0 -9 -3 0 -13 6 -8 8 -17 4 -20 -3 -4 1 -7 10 -7 10 0
17 4 17 9 0 5 11 8 24 7 18 -2 27 4 36 23 l12 26 19 -24 c16 -19 22 -21 34
-11 8 7 12 17 8 24 -4 6 1 5 10 -3 9 -7 14 -17 11 -22 -3 -5 4 -9 15 -9 12 0
21 -4 21 -10 0 -5 9 -10 20 -10 10 0 24 -8 30 -17 11 -17 11 -17 6 -1 -3 10
-1 18 5 18 6 0 7 5 3 11 -4 8 -9 7 -15 -2 -7 -11 -9 -11 -9 -1 0 7 -4 11 -9 8
-5 -3 -14 1 -21 9 -11 14 -10 14 14 6 19 -8 26 -7 26 2 0 8 4 7 10 -3 5 -8 10
-11 10 -5 0 5 5 4 11 -2 6 -6 18 -9 25 -6 8 3 14 -1 14 -8 1 -8 7 -3 15 11 18
32 19 46 1 31 -9 -7 -17 -8 -20 -3 -9 15 25 24 40 11 7 -6 10 -18 7 -27 -5
-14 -3 -13 9 2 13 17 15 17 21 2 4 -9 4 -23 1 -31 -5 -13 -9 -13 -23 -3 -11 8
-10 5 3 -10 20 -23 27 -27 25 -14 -5 29 14 36 54 18 10 -5 21 -6 24 -2 4 3 -1
6 -10 6 -20 0 -18 34 3 53 10 10 11 9 4 -3 -20 -35 -11 -54 11 -23 11 15 12
13 11 -12 0 -16 5 -30 13 -33 10 -3 12 0 8 12 -4 9 -2 16 3 16 6 0 10 -5 10
-11 0 -5 5 -7 10 -4 7 5 8 11 1 19 -7 8 -5 12 9 12 13 0 17 -6 14 -23 -6 -31
14 -39 22 -8 3 14 10 25 16 25 5 0 7 -4 4 -9 -3 -4 6 -6 19 -3 14 2 25 8 25
13 0 5 -7 6 -15 3 -8 -4 -15 -2 -15 4 0 8 22 22 36 22 10 0 3 -49 -8 -53 -7
-3 4 -3 25 -1 24 2 36 0 32 -6 -3 -5 0 -7 9 -4 8 3 12 12 9 20 -3 8 0 20 6 28
6 7 8 16 4 19 -3 4 -1 7 5 7 14 0 16 -16 2 -25 -13 -8 5 -51 20 -47 7 1 17 -2
24 -7 7 -6 18 -6 26 -1 12 7 12 11 -1 26 -11 14 -11 16 0 10 10 -7 12 -3 6 14
-6 20 -5 21 15 10 18 -10 20 -14 9 -22 -10 -7 -8 -8 8 -3 18 5 21 2 17 -17
l-5 -23 12 22 c6 12 20 24 31 26 16 4 17 3 7 -9 -8 -10 -9 -14 0 -14 6 0 14 6
17 14 3 8 13 12 25 9 12 -3 21 1 25 12 5 13 9 14 15 3 5 -7 9 -17 9 -23 0 -5
-5 -3 -10 5 -6 10 -10 11 -10 3 0 -7 -6 -13 -14 -13 -8 0 -18 -4 -21 -10 -4
-7 3 -7 20 0 24 9 26 8 21 -12 l-6 -23 11 23 c13 24 29 29 29 10 0 -9 3 -9 8
-2 11 17 72 39 71 26 -4 -29 2 -34 17 -16 8 10 12 13 9 6 -6 -11 -3 -11 15 0
18 10 24 10 27 1 3 -7 9 -13 15 -13 6 0 4 8 -4 18 -14 15 -14 19 3 36 11 11
19 15 19 10 0 -6 -5 -15 -11 -21 -8 -8 -7 -13 2 -18 8 -5 10 -4 5 3 -4 7 -2
12 4 12 7 0 9 -8 5 -19 -3 -11 -1 -22 5 -26 5 -3 10 -1 10 5 0 6 5 8 10 5 6
-3 10 -1 10 5 0 6 5 8 10 5 6 -3 10 4 11 17 1 23 1 23 9 -2 7 -21 8 -22 9 -4
1 17 7 20 39 18 20 -1 39 -3 42 -3 3 -1 -10 -10 -27 -21 -18 -11 -33 -23 -33
-26 0 -4 7 -1 15 6 8 7 15 9 15 6 0 -4 9 -2 21 5 19 9 20 8 14 -10 -6 -19 -5
-19 25 -5 26 14 29 18 18 32 -10 14 -10 15 1 5 7 -6 21 -9 30 -6 10 3 12 2 5
-4 -6 -4 -14 -17 -17 -27 -7 -17 -6 -17 9 -5 10 8 20 14 23 14 3 0 5 7 4 15
-4 29 6 43 22 30 8 -7 12 -17 8 -24 -11 -16 -13 -37 -3 -31 5 3 11 -1 14 -7 3
-7 4 -4 3 6 -1 10 4 20 11 22 7 1 8 0 3 -2 -14 -7 -2 -34 16 -34 8 0 12 4 8 9
-9 15 16 24 28 11 9 -10 9 -11 0 -6 -7 4 -13 2 -13 -3 0 -6 7 -11 15 -11 19 0
13 48 -7 63 -9 6 -8 7 5 3 10 -3 21 -6 23 -6 2 0 4 -6 4 -14 0 -8 7 -13 16
-12 9 0 19 -6 21 -14 3 -10 2 -11 -4 -3 -5 7 -14 9 -22 4 -9 -6 -7 -10 8 -14
22 -5 47 23 33 38 -4 4 3 5 16 2 18 -4 22 -2 18 9 -3 9 -2 12 5 9 13 -9 6 -30
-11 -30 -7 0 -15 -7 -17 -15 -3 -9 -1 -11 4 -5 12 14 43 18 43 5 0 -6 4 -9 9
-6 5 3 7 15 4 26 -3 11 0 20 6 20 7 0 10 -10 7 -24 -3 -15 1 -27 9 -30 19 -7
27 5 14 20 -6 7 -9 19 -6 26 4 9 6 7 6 -3 1 -9 7 -19 14 -22 17 -7 44 9 34 20
-5 4 -12 1 -16 -6 -6 -8 -11 -9 -15 -3 -3 6 4 14 16 18 39 13 50 13 40 1 -13
-19 -8 -40 11 -43 9 -1 15 1 12 6 -3 4 4 10 15 13 11 3 23 1 26 -4 3 -5 10 -7
15 -3 17 10 0 22 -31 19 -16 -1 -27 1 -24 6 3 5 10 7 15 4 5 -4 9 -2 9 4 0 7
8 7 25 -1 27 -12 32 -27 13 -46 -9 -9 -8 -12 6 -12 9 0 14 5 11 10 -6 10 22 9
40 -2 11 -7 29 10 33 32 2 12 0 12 -10 -1 -9 -10 -21 -13 -38 -9 l-25 6 25 7
c24 6 24 7 5 22 -19 16 -19 16 3 5 12 -6 30 -10 40 -8 12 2 16 -3 13 -17 -3
-20 -3 -20 19 0 l23 20 -12 -22 c-8 -16 -8 -24 1 -29 6 -4 8 -3 5 3 -4 6 0 14
9 17 8 3 13 2 10 -2 -3 -5 1 -9 7 -9 9 0 12 11 10 31 -3 28 -2 29 7 8 5 -12
18 -22 28 -22 10 0 23 -5 30 -10 6 -6 10 -7 7 -4 -5 8 20 34 33 34 5 0 17 -9
27 -20 17 -19 41 -18 29 1 -3 5 -11 6 -17 2 -7 -4 -7 -1 1 9 14 17 42 14 42
-4 0 -5 5 -6 10 -3 6 4 7 11 4 17 -5 7 -2 8 5 3 9 -5 10 -10 2 -18 -14 -14
-14 -30 -1 -22 6 3 10 0 10 -8 0 -7 7 -14 15 -14 12 0 12 3 2 16 -9 12 -9 13
1 7 7 -4 12 -2 12 4 0 6 4 9 9 5 5 -3 12 -1 15 4 3 5 -1 11 -9 15 -8 3 -15 10
-15 16 0 6 8 4 18 -6 9 -10 17 -25 17 -33 0 -11 10 -16 28 -17 22 -1 26 2 22
17 -4 11 -2 19 4 19 6 0 13 -11 17 -24 6 -24 42 -31 37 -7 -2 6 2 11 7 11 6 0
10 -5 10 -10 0 -6 8 -5 20 2 13 9 16 16 9 23 -6 6 -12 6 -17 0 -4 -6 -19 -11
-34 -13 -22 -2 -28 1 -27 15 0 11 3 13 6 6 2 -7 9 -13 14 -13 6 0 8 4 4 9 -3
6 4 8 15 6 11 -2 26 3 34 11 9 9 17 10 21 4 3 -5 1 -10 -6 -10 -8 0 -9 -3 0
-13 6 -8 8 -17 4 -20 -3 -4 1 -7 10 -7 10 0 17 4 17 9 0 5 11 8 24 7 18 -2 27
4 36 23 l12 26 19 -24 c16 -19 22 -21 34 -11 8 7 12 17 8 24 -4 6 1 5 10 -3 9
-7 14 -17 11 -22 -3 -5 4 -9 15 -9 12 0 21 -4 21 -10 0 -5 9 -10 20 -10 10 0
24 -8 30 -18 11 -16 11 -16 6 1 -3 9 -1 17 5 17 6 0 7 5 3 11 -4 8 -9 7 -15
-2 -7 -11 -9 -11 -9 -1 0 7 -4 11 -9 8 -5 -3 -14 1 -21 9 -11 14 -10 14 14 6
19 -8 26 -7 26 2 0 8 4 7 10 -3 5 -8 10 -11 10 -5 0 5 5 4 11 -2 6 -6 18 -9
25 -6 8 3 14 -1 14 -8 1 -8 7 -3 15 11 18 32 19 46 1 31 -9 -7 -17 -8 -20 -3
-9 15 25 24 40 11 7 -6 10 -18 7 -27 -5 -14 -3 -13 9 2 13 17 15 17 21 2 4 -9
4 -23 1 -31 -5 -13 -9 -13 -23 -3 -11 8 -10 5 3 -10 20 -23 27 -27 25 -14 -5
29 14 36 54 18 10 -5 21 -6 24 -2 4 3 -1 6 -10 6 -20 0 -18 34 3 53 10 10 11
9 4 -3 -20 -35 -11 -54 11 -23 11 15 12 13 11 -12 0 -16 5 -30 13 -33 10 -3
12 0 8 12 -4 9 -2 16 3 16 6 0 10 -5 10 -11 0 -5 5 -7 10 -4 7 5 8 11 1 19 -7
8 -5 12 9 12 13 0 17 -6 14 -23 -6 -31 14 -39 22 -8 3 14 10 25 16 25 5 0 7
-4 4 -9 -3 -4 6 -6 19 -3 14 2 25 8 25 13 0 5 -7 6 -15 3 -8 -4 -15 -2 -15 4
0 8 22 22 36 22 10 0 3 -49 -8 -53 -7 -3 4 -3 25 -1 24 2 36 0 32 -6 -3 -5 0
-7 9 -4 8 3 12 12 9 20 -3 8 0 20 6 28 6 7 8 16 4 19 -3 4 -1 7 5 7 14 0 16
-16 2 -25 -13 -8 5 -51 20 -47 7 1 17 -2 24 -7 7 -6 18 -6 26 -1 12 7 12 11
-1 26 -11 14 -11 16 0 10 10 -7 12 -3 6 14 -6 20 -5 21 15 10 18 -10 20 -14 9
-22 -10 -7 -8 -8 8 -3 18 5 21 2 17 -17 l-5 -23 12 22 c6 12 20 24 31 26 16 4
17 3 7 -9 -8 -10 -9 -14 0 -14 6 0 14 6 17 14 3 8 13 12 25 9 12 -3 21 1 25
12 5 13 9 14 15 3 5 -7 9 -17 9 -23 0 -5 -5 -3 -10 5 -6 10 -10 11 -10 3 0 -7
-6 -13 -14 -13 -8 0 -18 -4 -21 -10 -4 -7 3 -7 20 0 24 9 26 8 21 -12 l-6 -23
11 22 c13 25 29 30 29 11 0 -9 3 -9 8 -2 11 17 72 39 71 26 -4 -29 2 -34 17
-16 8 10 12 13 9 6 -6 -11 -3 -11 15 0 18 10 24 10 27 1 3 -7 9 -13 15 -13 6
0 4 8 -4 18 -14 15 -14 19 3 36 11 11 19 15 19 10 0 -6 -5 -15 -11 -21 -8 -8
-7 -13 2 -18 8 -5 10 -4 5 3 -4 7 -2 12 4 12 7 0 9 -8 5 -19 -3 -11 -1 -22 5
-26 5 -3 10 -1 10 5 0 6 5 8 10 5 6 -3 10 -1 10 5 0 6 5 8 10 5 6 -3 10 4 11
17 1 23 1 23 9 -2 7 -21 8 -22 9 -4 1 17 7 20 38 18 21 -1 40 -3 43 -3 3 -1
-10 -10 -27 -21 -18 -11 -33 -23 -33 -26 0 -4 7 -1 15 6 8 7 15 9 15 6 0 -4 9
-2 21 5 19 9 20 8 14 -10 -6 -19 -5 -19 25 -5 26 14 29 18 18 32 -10 14 -10
15 1 5 7 -6 21 -9 30 -6 10 3 12 2 5 -4 -6 -4 -14 -17 -17 -27 -7 -17 -6 -17
9 -5 10 8 20 13 23 11 3 -1 7 918 9 2043 l2 2045 -2560 0 -2560 0 0 -2014z
m754 -2022 c5 -14 4 -15 -9 -4 -17 14 -19 20 -6 20 5 0 12 -7 15 -16z m209 9
c-7 -2 -19 -2 -25 0 -7 3 -2 5 12 5 14 0 19 -2 13 -5z m838 -10 c12 -14 12
-16 0 -8 -11 6 -13 3 -9 -12 6 -23 -18 -28 -26 -6 -3 8 -1 11 4 8 9 -6 14 8
11 28 -2 12 6 8 20 -10z m676 -14 c0 -21 -3 -26 -9 -16 -4 9 -5 22 -2 31 9 23
11 20 11 -15z m837 15 c5 -14 4 -15 -9 -4 -17 14 -19 20 -6 20 5 0 12 -7 15
-16z m209 9 c-7 -2 -19 -2 -25 0 -7 3 -2 5 12 5 14 0 19 -2 13 -5z m838 -10
c12 -14 12 -16 0 -8 -11 6 -13 3 -9 -12 6 -23 -18 -28 -26 -6 -3 8 -1 11 4 8
9 -6 14 8 11 28 -2 12 6 8 20 -10z m676 -14 c0 -21 -3 -26 -9 -16 -4 9 -5 22
-2 31 9 23 11 20 11 -15z m-4872 12 c3 -5 2 -12 -3 -15 -5 -3 -9 1 -9 9 0 17
3 19 12 6z m302 3 c-3 -3 -12 -4 -19 -1 -8 3 -5 6 6 6 11 1 17 -2 13 -5z m660
-15 c-8 -14 -14 -15 -25 -7 -14 12 -3 25 22 25 11 0 12 -4 3 -18z m393 11 c0
-5 -5 -10 -11 -10 -5 0 -7 5 -4 10 3 6 8 10 11 10 2 0 4 -4 4 -10z m356 -27
c-3 -3 -1 -12 4 -19 8 -9 4 -12 -15 -10 -18 1 -25 7 -25 21 0 15 2 17 9 6 5
-8 11 -9 15 -3 3 6 2 13 -4 17 -5 3 -10 11 -10 16 0 6 7 3 16 -6 9 -9 14 -19
10 -22z m849 28 c3 -5 2 -12 -3 -15 -5 -3 -9 1 -9 9 0 17 3 19 12 6z m302 3
c-3 -3 -12 -4 -19 -1 -8 3 -5 6 6 6 11 1 17 -2 13 -5z m660 -15 c-8 -14 -14
-15 -25 -7 -14 12 -3 25 22 25 11 0 12 -4 3 -18z m393 11 c0 -5 -5 -10 -11
-10 -5 0 -7 5 -4 10 3 6 8 10 11 10 2 0 4 -4 4 -10z m356 -27 c-3 -3 -1 -12 4
-19 8 -9 4 -12 -15 -10 -18 1 -25 7 -25 21 0 15 2 17 9 6 5 -8 11 -9 15 -3 3
6 2 13 -4 17 -5 3 -10 11 -10 16 0 6 7 3 16 -6 9 -9 14 -19 10 -22z m-3776 23
c0 -3 -4 -8 -10 -11 -5 -3 -10 -1 -10 4 0 6 5 11 10 11 6 0 10 -2 10 -4z m31
-9 c-1 -12 -15 -9 -19 4 -3 6 1 10 8 8 6 -3 11 -8 11 -12z m247 -7 c-7 -11
-15 -15 -17 -9 -2 6 3 15 10 20 20 12 21 11 7 -11z m762 10 c0 -5 -7 -10 -16
-10 -8 0 -12 5 -9 10 3 6 10 10 16 10 5 0 9 -4 9 -10z m515 0 c3 -5 1 -10 -4
-10 -6 0 -11 5 -11 10 0 6 2 10 4 10 3 0 8 -4 11 -10z m1005 6 c0 -3 -4 -8
-10 -11 -5 -3 -10 -1 -10 4 0 6 5 11 10 11 6 0 10 -2 10 -4z m31 -9 c-1 -12
-15 -9 -19 4 -3 6 1 10 8 8 6 -3 11 -8 11 -12z m247 -7 c-7 -11 -15 -15 -17
-9 -2 6 3 15 10 20 20 12 21 11 7 -11z m762 10 c0 -5 -7 -10 -16 -10 -8 0 -12
5 -9 10 3 6 10 10 16 10 5 0 9 -4 9 -10z m515 0 c3 -5 1 -10 -4 -10 -6 0 -11
5 -11 10 0 6 2 10 4 10 3 0 8 -4 11 -10z m-2653 -22 c-7 -7 -12 -8 -12 -2 0
14 12 26 19 19 2 -3 -1 -11 -7 -17z m2560 0 c-7 -7 -12 -8 -12 -2 0 14 12 26
19 19 2 -3 -1 -11 -7 -17z m-4578 3 c4 -5 -3 -7 -14 -4 -23 6 -26 13 -6 13 8
0 17 -4 20 -9z m1416 5 c0 -3 -4 -8 -10 -11 -5 -3 -10 -1 -10 4 0 6 5 11 10
11 6 0 10 -2 10 -4z m1144 -5 c4 -5 -3 -7 -14 -4 -23 6 -26 13 -6 13 8 0 17
-4 20 -9z m1416 5 c0 -3 -4 -8 -10 -11 -5 -3 -10 -1 -10 4 0 6 5 11 10 11 6 0
10 -2 10 -4z"/>
<path d="M0 1070 c0 -5 5 -10 11 -10 5 0 7 5 4 10 -3 6 -8 10 -11 10 -2 0 -4
-4 -4 -10z"/>
<path d="M1174 1071 c4 -5 0 -12 -6 -14 -8 -3 -6 -6 5 -6 9 -1 17 -5 17 -10 0
-12 -30 -22 -42 -14 -7 4 -8 1 -3 -6 4 -8 17 -10 31 -7 14 4 24 2 24 -4 0 -6
4 -9 9 -5 9 5 -24 75 -36 75 -2 0 -2 -4 1 -9z"/>
<path d="M2560 1070 c0 -5 5 -10 11 -10 5 0 7 5 4 10 -3 6 -8 10 -11 10 -2 0
-4 -4 -4 -10z"/>
<path d="M3734 1071 c4 -5 0 -12 -6 -14 -8 -3 -6 -6 5 -6 9 -1 17 -5 17 -10 0
-12 -30 -22 -42 -14 -7 4 -8 1 -3 -6 4 -8 17 -10 31 -7 14 4 24 2 24 -4 0 -6
4 -9 9 -5 9 5 -24 75 -36 75 -2 0 -2 -4 1 -9z"/>
<path d="M1239 1068 c-1 -2 -3 -16 -5 -33 -2 -20 0 -25 5 -16 5 8 16 11 25 8
9 -4 16 -3 16 2 0 5 -9 11 -21 14 -12 3 -18 10 -14 16 3 6 4 11 1 11 -3 0 -7
-1 -7 -2z"/>
<path d="M2387 1063 c-4 -3 -7 -11 -7 -17 0 -6 5 -5 12 2 6 6 9 14 7 17 -3 3
-9 2 -12 -2z"/>
<path d="M3799 1068 c-1 -2 -3 -16 -5 -33 -2 -20 0 -25 5 -16 5 8 16 11 25 8
9 -4 16 -3 16 2 0 5 -9 11 -21 14 -12 3 -18 10 -14 16 3 6 4 11 1 11 -3 0 -7
-1 -7 -2z"/>
<path d="M4947 1063 c-4 -3 -7 -11 -7 -17 0 -6 5 -5 12 2 6 6 9 14 7 17 -3 3
-9 2 -12 -2z"/>
<path d="M710 1031 c0 -5 7 -11 14 -14 10 -4 13 -1 9 9 -6 15 -23 19 -23 5z"/>
<path d="M3270 1031 c0 -5 7 -11 14 -14 10 -4 13 -1 9 9 -6 15 -23 19 -23 5z"/>
<path d="M651 1014 c0 -11 3 -14 6 -6 3 7 2 16 -1 19 -3 4 -6 -2 -5 -13z"/>
<path d="M2129 1013 c-13 -16 -12 -17 4 -4 16 13 21 21 13 21 -2 0 -10 -8 -17
-17z"/>
<path d="M3211 1014 c0 -11 3 -14 6 -6 3 7 2 16 -1 19 -3 4 -6 -2 -5 -13z"/>
<path d="M4689 1013 c-13 -16 -12 -17 4 -4 9 7 17 15 17 17 0 8 -8 3 -21 -13z"/>
</g>
</svg>
